<svg width="171" height="16" viewBox="0 0 171 16" fill="none" xmlns="http://www.w3.org/2000/svg">
<path d="M2.48141 1.51005L2.49939 6.54362L8.30597 6.22003V0.790966L10.8228 1.51005V13.285L8.30597 12.7637V7.74808L2.49939 8.07167L2.51737 13.285L0.000579992 12.7637V0.790966L2.48141 1.51005ZM21.7921 1.52802L21.7741 1.58196L26.592 13.285L24.2729 12.7637L23.0146 9.47387L18.772 9.76151L17.4776 13.285L14.9608 12.7637L19.3113 0.790966L21.7921 1.52802ZM20.8933 3.95492L19.3472 8.1975L22.4393 7.98178L20.8933 3.95492ZM37.3823 8.30537L35.9441 6.68743H40.1328L42.6136 7.42449C42.6376 10.0731 42.6496 11.5712 42.6496 11.9188C42.6496 12.8655 42.7454 13.5307 42.9372 13.9142C43.1409 14.2977 43.5544 14.5794 44.1776 14.7591C43.3147 14.9868 42.4938 14.849 41.7147 14.3457C40.9477 13.8543 40.5343 13.1472 40.4743 12.2244L40.4204 11.4154C39.989 11.7869 39.5994 12.0925 39.2519 12.3322C38.9043 12.5599 38.5028 12.7637 38.0474 12.9434C37.604 13.1232 37.1426 13.1891 36.6632 13.1412C36.1958 13.1052 35.7164 12.9494 35.225 12.6738C33.8108 11.8708 32.7862 11.1817 32.151 10.6064C31.5997 10.0911 31.1622 9.5338 30.8386 8.93456C30.5151 8.33533 30.3173 7.74808 30.2454 7.17281C30.1855 6.59755 30.1975 6.0103 30.2814 5.41106C30.3772 4.81183 30.563 4.25454 30.8386 3.7392C31.1143 3.22386 31.4319 2.73249 31.7914 2.26508C32.151 1.79768 32.5584 1.40818 33.0139 1.09657C33.4813 0.784973 33.9487 0.527303 34.4161 0.323563C34.8955 0.107838 35.3868 0.00596824 35.8902 0.0179528C36.3935 0.029938 36.8669 0.125816 37.3104 0.305586C39.4556 1.28833 40.8518 1.9415 41.499 2.26508L40.726 3.21787C40.5462 3.13397 39.7013 2.79241 38.1912 2.19317C37.6639 1.97745 37.1725 1.91753 36.7171 2.0134C36.2617 2.10928 35.8123 2.29504 35.3689 2.57069C34.9374 2.83436 34.5659 3.1939 34.2543 3.64931C33.9427 4.10473 33.667 4.59011 33.4273 5.10545C33.1876 5.60881 33.0318 6.14812 32.9599 6.72339C32.9 7.29865 32.9 7.84396 32.9599 8.3593C33.0318 8.87464 33.2116 9.36002 33.4992 9.81544C33.7869 10.2709 34.1704 10.6364 34.6498 10.912C35.0573 11.1517 35.4707 11.2716 35.8902 11.2716C36.3216 11.2716 36.7231 11.1877 37.0946 11.0199C37.4662 10.8401 37.8257 10.6064 38.1733 10.3188C38.5328 10.0312 38.8624 9.73155 39.162 9.41994C39.4616 9.10834 39.7433 8.80872 40.0069 8.52109C40.0908 8.42521 40.1507 8.35331 40.1867 8.30537H37.3823ZM50.5321 1.52802L50.568 13.285L47.8715 12.7637V0.790966L50.5321 1.52802ZM55.9618 2.39092L54.5237 0.772988H64.7166L66.1548 2.39092H61.8223L61.8583 13.285L59.3415 12.7637V2.39092H55.9618ZM81.5804 1.51005L81.5983 6.54362L87.4049 6.22003V0.790966L89.9217 1.51005V13.285L87.4049 12.7637V7.74808L81.5983 8.07167L81.6163 13.285L79.0995 12.7637V0.790966L81.5804 1.51005ZM100.891 1.52802L100.873 1.58196L105.691 13.285L103.372 12.7637L102.114 9.47387L97.8709 9.76151L96.5766 13.285L94.0598 12.7637L98.4102 0.790966L100.891 1.52802ZM99.9922 3.95492L98.4462 8.1975L101.538 7.98178L99.9922 3.95492ZM116.967 9.02445C116.859 8.82071 116.583 8.52708 116.14 8.14357C114.977 8.57502 113.647 8.62296 112.149 8.28739L112.167 13.285L109.65 12.7637V0.737035C110.741 0.437418 111.957 0.23967 113.299 0.143793C114.654 0.0479148 115.504 0.119823 115.852 0.359516C116.212 0.683103 116.775 1.22841 117.542 1.99543C118.309 2.76245 118.842 3.31974 119.142 3.66729C119.453 4.0508 119.417 4.67401 119.034 5.5369C118.662 6.3998 118.021 7.11289 117.11 7.67617C118.381 8.21548 119.07 8.54506 119.178 8.66491C119.334 8.89262 119.441 9.15628 119.501 9.4559C119.573 9.74353 119.609 9.98922 119.609 10.193C119.609 10.3967 119.597 10.6843 119.573 11.0559C119.549 11.4274 119.537 11.6791 119.537 11.8109C119.537 11.9307 119.525 12.1165 119.501 12.3682C119.489 12.6079 119.483 12.7876 119.483 12.9075C119.483 13.0273 119.501 13.1771 119.537 13.3569C119.573 13.5487 119.633 13.6985 119.717 13.8063C119.801 13.9142 119.927 14.0281 120.095 14.1479C120.262 14.2678 120.478 14.3696 120.742 14.4535C119.795 14.6453 119.004 14.4895 118.369 13.9861C117.746 13.4947 117.404 12.7697 117.344 11.8109C117.344 11.739 117.332 11.5173 117.308 11.1457C117.296 10.7742 117.278 10.5046 117.254 10.3368C117.242 10.169 117.212 9.95326 117.164 9.6896C117.116 9.41395 117.051 9.19223 116.967 9.02445ZM116.661 2.39092C115.954 1.71978 114.444 1.6239 112.131 2.10329L112.149 7.13686C112.988 7.14884 113.743 7.029 114.414 6.77732C115.097 6.51366 115.618 6.18408 115.978 5.78858C116.337 5.3811 116.613 4.95565 116.805 4.51221C116.997 4.06878 117.074 3.65531 117.039 3.2718C117.003 2.88829 116.877 2.59466 116.661 2.39092ZM127.029 1.51005L130.804 10.6604L135.172 0.790966L137.653 1.51005L137.689 13.285L135.172 12.7637V6.70541L132.206 13.285L129.869 12.7637L129.887 12.7277L129.869 12.7457L127.029 5.68072L127.065 13.285L124.548 12.7637V0.790966L127.029 1.51005ZM151.012 2.48081C149.813 1.68982 148.627 1.73176 147.452 2.60665C146.505 3.32573 145.816 4.3624 145.385 5.71667C144.917 7.22674 144.965 8.52708 145.529 9.61769C145.804 10.169 146.212 10.6064 146.751 10.93C147.962 11.6611 149.148 11.5772 150.311 10.6783C151.257 9.94727 151.934 8.89861 152.342 7.53235C152.785 6.02228 152.701 4.72794 152.09 3.64931C151.827 3.16993 151.467 2.78042 151.012 2.48081ZM153.816 3.36168C154.271 3.80512 154.613 4.33244 154.841 4.94366C155.068 5.5429 155.176 6.16011 155.164 6.7953C155.164 7.4185 155.062 8.05369 154.859 8.70086C154.667 9.34803 154.397 9.95326 154.05 10.5165C153.714 11.0678 153.307 11.5652 152.827 12.0086C152.348 12.4401 151.833 12.7697 151.281 12.9974C150.73 13.2251 150.131 13.321 149.484 13.285C148.836 13.2491 148.201 13.0513 147.578 12.6918C147.482 12.6318 147.308 12.536 147.057 12.4041C146.817 12.2723 146.643 12.1824 146.535 12.1345C146.439 12.0746 146.29 11.9847 146.086 11.8648C145.882 11.733 145.708 11.6191 145.565 11.5233C145.433 11.4154 145.265 11.2896 145.061 11.1457C144.869 10.9899 144.672 10.8222 144.468 10.6424C144.264 10.4626 144.048 10.2589 143.821 10.0312C143.377 9.6117 143.048 9.10834 142.832 8.52109C142.628 7.93384 142.532 7.32861 142.544 6.70541C142.568 6.08221 142.676 5.45301 142.868 4.81782C143.06 4.17065 143.323 3.56542 143.659 3.00214C144.007 2.42688 144.414 1.91753 144.881 1.47409C145.349 1.01868 145.84 0.665127 146.356 0.413448C146.883 0.149784 147.446 0.0179528 148.045 0.0179528C148.645 0.0179528 149.232 0.173754 149.807 0.485356C151.365 1.32428 152.701 2.28306 153.816 3.36168ZM170.853 1.51005V13.285L168.337 12.7637L162.512 4.53019L162.548 13.285L160.031 12.7637V0.790966L162.512 1.51005L168.337 9.65364V0.790966L170.853 1.51005Z" fill="#370001"/>
</svg>
