<svg width="380" height="24" viewBox="0 0 380 24" fill="none" xmlns="http://www.w3.org/2000/svg">
<path d="M0.000617243 22.875V0.442303H2.8047V9.70317H14.0211V0.442303H16.8251V22.875H14.0211V12.2121H2.8047V22.875H0.000617243ZM33.8425 22.875L41.1479 0.442303H44.7637L52.0691 22.875H49.265L47.0143 16.1599H38.8972L36.6466 22.875H33.8425ZM39.7089 13.651H46.2026L42.9558 3.94741L39.7089 13.651ZM68.0576 11.6587C68.0576 8.14124 68.9185 5.31256 70.6403 3.1726C72.3867 1.05723 74.6989 -0.000447574 77.5767 -0.000447574C79.7167 -0.000447574 81.6107 0.663678 83.2587 1.99193C84.9067 3.34478 85.9152 5.06659 86.2842 7.15735L83.4801 7.45252C83.2341 6.02588 82.5454 4.84521 81.4139 3.91051C80.307 2.97582 79.028 2.50847 77.5767 2.50847C75.5352 2.50847 73.9117 3.34478 72.7065 5.01739C71.4766 6.66541 70.8617 8.87916 70.8617 11.6587C70.8617 14.3643 71.4766 16.5412 72.7065 18.1892C73.9117 19.8126 75.5352 20.6244 77.5767 20.6244C79.4461 20.6244 80.9466 19.9848 82.078 18.7058C83.2095 17.4513 83.7752 15.7664 83.7752 13.651H77.5767V10.8469H86.5793V22.3216H84.587L84.1811 19.9233C83.4678 20.9564 82.5085 21.7558 81.3032 22.3216C80.1471 22.8627 78.905 23.1333 77.5767 23.1333C74.6989 23.1333 72.3867 22.0879 70.6403 19.9971C68.9185 17.9064 68.0576 15.1269 68.0576 11.6587ZM104.506 22.875V0.442303H107.31V22.875H104.506ZM124.301 2.98812V0.442303H141.126V2.98812H134.079V22.875H131.275V2.98812H124.301ZM182.53 22.875V0.442303H185.334V9.70317H196.55V0.442303H199.354V22.875H196.55V12.2121H185.334V22.875H182.53ZM216.371 22.875L223.677 0.442303H227.293L234.598 22.875H231.794L229.543 16.1599H221.426L219.175 22.875H216.371ZM222.238 13.651H228.732L225.485 3.94741L222.238 13.651ZM251.62 22.875V0.442303H261.286C263.5 0.442303 265.271 1.04494 266.599 2.2502C267.928 3.43087 268.592 5.01739 268.592 7.00977C268.592 8.23963 268.272 9.35881 267.632 10.3673C266.944 11.3758 266.046 12.0891 264.939 12.5073C265.751 13.073 266.39 13.7617 266.858 14.5734C267.35 15.4343 267.595 16.3321 267.595 17.2668L267.743 21.6205C267.743 21.8665 267.878 22.1986 268.149 22.6167L268.296 22.875H265.492L265.419 22.7274C265.099 22.1863 264.939 21.7681 264.939 21.473L264.791 17.2668C264.791 16.1845 264.312 15.299 263.352 14.6103C262.467 13.9708 261.409 13.651 260.179 13.651H254.424V22.875H251.62ZM254.424 11.1052H261.286C262.639 11.1052 263.734 10.7363 264.57 9.99834C265.382 9.23582 265.788 8.23963 265.788 7.00977C265.788 5.8045 265.382 4.83291 264.57 4.095C263.734 3.35708 262.639 2.98812 261.286 2.98812H254.424V11.1052ZM286.252 22.875V0.442303H289.757L296.767 18.1154L303.777 0.442303H307.282V22.875H304.478V6.05048L297.726 22.875H295.771L289.056 6.05048V22.875H286.252ZM324.89 11.6587C324.89 8.14124 325.812 5.31256 327.657 3.1726C329.502 1.05723 331.949 -0.000447574 334.999 -0.000447574C338.049 -0.000447574 340.484 1.05723 342.304 3.1726C344.149 5.31256 345.072 8.14124 345.072 11.6587C345.072 15.1269 344.149 17.9064 342.304 19.9971C340.484 22.0879 338.049 23.1333 334.999 23.1333C331.949 23.1333 329.502 22.0879 327.657 19.9971C325.812 17.9064 324.89 15.1269 324.89 11.6587ZM327.694 11.6587C327.694 14.3643 328.358 16.5412 329.686 18.1892C331.014 19.8126 332.785 20.6244 334.999 20.6244C337.188 20.6244 338.947 19.8126 340.275 18.1892C341.603 16.5412 342.268 14.3643 342.268 11.6587C342.268 8.87916 341.603 6.66541 340.275 5.01739C338.947 3.34478 337.188 2.50847 334.999 2.50847C332.785 2.50847 331.014 3.34478 329.686 5.01739C328.358 6.66541 327.694 8.87916 327.694 11.6587ZM362.738 22.875V0.442303H365.542L376.758 18.1154V0.442303H379.563V22.875H376.758L365.542 5.23877V22.875H362.738Z" fill="#452223"/>
</svg>
